<svg width="26" height="26" viewBox="0 0 26 26" fill="none" xmlns="http://www.w3.org/2000/svg" xmlns:xlink="http://www.w3.org/1999/xlink">
<path d="M11.999,25.333C5.408,25.246 0.086,19.924 -0.001,13.333C0.086,6.742 5.408,1.42 11.999,1.333C18.59,1.42 23.912,6.742 23.999,13.333C23.912,19.924 18.59,25.246 11.999,25.333ZM11.999,4C6.872,4.068 2.733,8.207 2.665,13.333C2.733,18.46 6.872,22.599 11.999,22.667C17.125,22.599 21.264,18.46 21.332,13.333C21.264,8.207 17.125,4.068 11.999,4ZM18.665,14.667L10.665,14.667L10.665,6.667L13.332,6.667L13.332,12L18.665,12L18.665,14.667ZM23.055,4.944L19.043,0.944L20.921,-0.945L24.935,3.055L23.055,4.943L23.055,4.944ZM0.941,4.944L-0.945,3.055L3.043,-0.945L4.929,0.944L0.944,4.944L0.941,4.944Z" fill="#FC724D"/>
</svg>
