<svg width="32" height="32" viewBox="0 0 32 32" fill="none" xmlns="http://www.w3.org/2000/svg" xmlns:xlink="http://www.w3.org/1999/xlink">
<path d="M1,19.801C1.265,19.801 1.52,19.906 1.707,20.094C1.895,20.281 2,20.536 2,20.801L2,25.801C2,26.331 2.211,26.84 2.586,27.215C2.961,27.59 3.47,27.801 4,27.801L28,27.801C28.53,27.801 29.039,27.59 29.414,27.215C29.789,26.84 30,26.331 30,25.801L30,20.801C30,20.536 30.105,20.281 30.293,20.094C30.48,19.906 30.735,19.801 31,19.801C31.265,19.801 31.52,19.906 31.707,20.094C31.895,20.281 32,20.536 32,20.801L32,25.801C32,26.862 31.579,27.879 30.828,28.629C30.078,29.379 29.061,29.801 28,29.801L4,29.801C2.939,29.801 1.922,29.379 1.172,28.629C0.421,27.879 0,26.862 0,25.801L0,20.801C0,20.536 0.105,20.281 0.293,20.094C0.48,19.906 0.735,19.801 1,19.801L1,19.801Z" fill="#737373"/>
<path d="M15.293,23.708C15.386,23.801 15.497,23.875 15.618,23.925C15.739,23.976 15.87,24.002 16.001,24.002C16.133,24.002 16.263,23.976 16.385,23.925C16.506,23.875 16.616,23.801 16.709,23.708L22.709,17.708C22.897,17.52 23.003,17.266 23.003,17C23.003,16.734 22.897,16.48 22.709,16.292C22.522,16.104 22.267,15.999 22.001,15.999C21.736,15.999 21.481,16.104 21.293,16.292L17.001,20.586L17.001,3C17.001,2.735 16.896,2.48 16.708,2.293C16.521,2.105 16.266,2 16.001,2C15.736,2 15.482,2.105 15.294,2.293C15.107,2.48 15.001,2.735 15.001,3L15.001,20.586L10.709,16.292C10.521,16.104 10.267,15.999 10.001,15.999C9.736,15.999 9.481,16.104 9.293,16.292C9.105,16.48 9,16.734 9,17C9,17.266 9.105,17.52 9.293,17.708L15.293,23.708L15.293,23.708Z" fill="#737373"/>
</svg>
