<svg width="212" height="176" viewBox="0 0 212 176" fill="none" xmlns="http://www.w3.org/2000/svg" xmlns:xlink="http://www.w3.org/1999/xlink">
<path d="M2.984,148.664C3.33,140.01 4.021,133.603 5.032,129.388C5.54,127.271 6.108,125.802 6.691,124.892C7.274,123.981 7.719,123.843 7.977,123.843C8.324,123.843 8.968,124.077 9.935,125.084C10.87,126.058 11.937,127.58 13.128,129.708C15.506,133.955 18.255,140.384 21.371,149.039L23.731,148.189C20.601,139.494 17.797,132.911 15.317,128.482C14.08,126.273 12.891,124.542 11.744,123.347C10.629,122.185 9.364,121.335 7.977,121.335C6.499,121.335 5.383,122.282 4.578,123.539C3.773,124.797 3.126,126.582 2.593,128.803C1.522,133.263 0.825,139.869 0.477,148.564L2.984,148.664ZM21.371,149.039C24.501,157.734 27.304,164.317 29.784,168.746C31.022,170.956 32.21,172.687 33.357,173.882C34.473,175.043 35.737,175.894 37.125,175.894C38.603,175.894 39.719,174.947 40.524,173.689C41.329,172.431 41.976,170.646 42.509,168.426C43.579,163.966 44.276,157.36 44.624,148.664L42.118,148.564C41.772,157.219 41.081,163.626 40.069,167.84C39.561,169.958 38.994,171.426 38.411,172.337C37.828,173.248 37.382,173.385 37.125,173.385C36.778,173.385 36.133,173.151 35.167,172.144C34.232,171.17 33.165,169.648 31.973,167.52C29.595,163.274 26.847,156.844 23.731,148.189L21.371,149.039ZM44.624,148.664C44.97,140.01 45.661,133.603 46.673,129.388C47.181,127.271 47.748,125.802 48.331,124.892C48.914,123.981 49.36,123.843 49.617,123.843C49.964,123.843 50.608,124.077 51.575,125.084C52.51,126.058 53.577,127.58 54.769,129.708C57.147,133.955 59.895,140.384 63.011,149.039L65.371,148.189C62.241,139.494 59.437,132.911 56.957,128.482C55.72,126.273 54.532,124.542 53.385,123.347C52.269,122.185 51.005,121.335 49.617,121.335C48.139,121.335 47.023,122.282 46.218,123.539C45.413,124.797 44.766,126.582 44.233,128.803C43.163,133.263 42.466,139.869 42.118,148.564L44.624,148.664ZM63.011,149.039C66.141,157.734 68.945,164.317 71.425,168.746C72.662,170.956 73.851,172.687 74.998,173.882C76.113,175.043 77.378,175.894 78.765,175.894C80.243,175.894 81.359,174.947 82.164,173.689C82.969,172.431 83.616,170.646 84.149,168.426C85.22,163.966 85.917,157.36 86.265,148.664L83.758,148.564C83.412,157.219 82.721,163.626 81.71,167.84C81.202,169.958 80.634,171.426 80.051,172.337C79.468,173.248 79.023,173.385 78.765,173.385C78.418,173.385 77.774,173.151 76.807,172.144C75.872,171.17 74.805,169.648 73.614,167.52C71.236,163.274 68.487,156.844 65.371,148.189L63.011,149.039ZM86.265,148.664C86.611,140.01 87.302,133.603 88.313,129.388C88.821,127.271 89.389,125.802 89.972,124.892C90.555,123.981 91,123.843 91.258,123.843C91.605,123.843 92.249,124.077 93.216,125.084C94.151,126.058 95.218,127.58 96.409,129.708C98.787,133.955 101.536,140.384 104.652,149.039L107.012,148.189C103.882,139.494 101.078,132.911 98.598,128.482C97.361,126.273 96.172,124.542 95.025,123.347C93.91,122.185 92.645,121.335 91.258,121.335C89.78,121.335 88.664,122.282 87.859,123.539C87.054,124.797 86.407,126.582 85.874,128.803C84.803,133.263 84.106,139.869 83.758,148.564L86.265,148.664ZM104.652,149.039C107.782,157.734 110.586,164.317 113.066,168.746C114.303,170.956 115.491,172.687 116.638,173.882C117.754,175.043 119.018,175.894 120.406,175.894C121.884,175.894 123,174.947 123.805,173.689C124.61,172.431 125.257,170.646 125.79,168.426C126.86,163.966 127.557,157.36 127.905,148.664L125.399,148.564C125.053,157.219 124.362,163.626 123.35,167.84C122.842,169.958 122.275,171.426 121.692,172.337C121.109,173.248 120.663,173.385 120.406,173.385C120.059,173.385 119.415,173.151 118.448,172.144C117.513,171.17 116.446,169.648 115.254,167.52C112.876,163.274 110.128,156.844 107.012,148.189L104.652,149.039ZM127.905,148.664C128.251,140.01 128.942,133.603 129.954,129.388C130.462,127.271 131.029,125.802 131.612,124.892C132.195,123.981 132.641,123.843 132.898,123.843C133.245,123.843 133.89,124.077 134.856,125.084C135.791,126.058 136.858,127.58 138.05,129.708C140.428,133.955 143.176,140.384 146.292,149.039L148.652,148.189C145.522,139.494 142.719,132.911 140.239,128.482C139.001,126.273 137.813,124.542 136.666,123.347C135.55,122.185 134.286,121.335 132.898,121.335C131.42,121.335 130.304,122.282 129.499,123.539C128.694,124.797 128.047,126.582 127.515,128.803C126.444,133.263 125.747,139.869 125.399,148.564L127.905,148.664ZM146.292,149.039C149.423,157.734 152.226,164.317 154.706,168.746C155.944,170.956 157.132,172.687 158.279,173.882C159.394,175.043 160.659,175.894 162.047,175.894C163.524,175.894 164.64,174.947 165.445,173.689C166.25,172.431 166.897,170.646 167.43,168.426C168.501,163.966 169.198,157.36 169.546,148.664L167.039,148.564C166.693,157.219 166.003,163.626 164.991,167.84C164.483,169.958 163.915,171.426 163.332,172.337C162.749,173.248 162.304,173.385 162.047,173.385C161.699,173.385 161.055,173.151 160.089,172.144C159.154,171.17 158.086,169.648 156.895,167.52C154.517,163.274 151.768,156.844 148.652,148.189L146.292,149.039ZM169.546,148.664C169.892,140.01 170.583,133.603 171.594,129.388C172.102,127.271 172.67,125.802 173.253,124.892C173.836,123.981 174.281,123.843 174.539,123.843C174.886,123.843 175.53,124.077 176.497,125.084C177.432,126.058 178.499,127.58 179.69,129.708C182.069,133.955 184.817,140.384 187.933,149.039L190.293,148.189C187.163,139.494 184.359,132.911 181.879,128.482C180.642,126.273 179.453,124.542 178.306,123.347C177.191,122.185 175.927,121.335 174.539,121.335C173.061,121.335 171.945,122.282 171.14,123.539C170.335,124.797 169.688,126.582 169.155,128.803C168.085,133.263 167.387,139.869 167.039,148.564L169.546,148.664ZM187.933,149.039C191.063,157.734 193.867,164.317 196.347,168.746C197.584,170.956 198.772,172.687 199.92,173.882C201.035,175.043 202.298,175.894 203.686,175.894C205.164,175.894 206.28,174.947 207.086,173.689C207.89,172.431 208.538,170.646 209.07,168.426C210.14,163.966 210.838,157.36 211.186,148.664L208.68,148.564C208.334,157.219 207.642,163.626 206.632,167.84C206.124,169.958 205.556,171.426 204.972,172.337C204.39,173.248 203.944,173.385 203.686,173.385C203.34,173.385 202.696,173.151 201.729,172.144C200.794,171.17 199.727,169.648 198.535,167.52C196.157,163.274 193.409,156.844 190.293,148.189L187.933,149.039Z" fill="#FE6610"/>
<path d="M2.984,108.585C3.33,99.931 4.021,93.524 5.032,89.309C5.54,87.192 6.108,85.723 6.691,84.812C7.274,83.901 7.719,83.764 7.977,83.764C8.324,83.764 8.968,83.998 9.935,85.005C10.87,85.979 11.937,87.501 13.128,89.629C15.506,93.875 18.255,100.305 21.371,108.96L23.731,108.11C20.601,99.415 17.797,92.832 15.317,88.403C14.08,86.194 12.891,84.463 11.744,83.268C10.629,82.106 9.364,81.256 7.977,81.256C6.499,81.256 5.383,82.202 4.578,83.46C3.773,84.718 3.126,86.503 2.593,88.723C1.522,93.184 0.825,99.789 0.477,108.485L2.984,108.585ZM21.371,108.96C24.501,117.655 27.304,124.238 29.784,128.667C31.022,130.877 32.21,132.608 33.357,133.803C34.473,134.964 35.737,135.815 37.125,135.815C38.603,135.815 39.719,134.868 40.524,133.61C41.329,132.352 41.976,130.567 42.509,128.347C43.579,123.887 44.276,117.281 44.624,108.585L42.118,108.485C41.772,117.14 41.081,123.547 40.069,127.761C39.561,129.879 38.994,131.347 38.411,132.258C37.828,133.169 37.382,133.306 37.125,133.306C36.778,133.306 36.133,133.072 35.167,132.065C34.232,131.091 33.165,129.569 31.973,127.441C29.595,123.195 26.847,116.765 23.731,108.11L21.371,108.96ZM44.624,108.585C44.97,99.931 45.661,93.524 46.673,89.309C47.181,87.192 47.748,85.723 48.331,84.812C48.914,83.901 49.36,83.764 49.617,83.764C49.964,83.764 50.608,83.998 51.575,85.005C52.51,85.979 53.577,87.501 54.769,89.629C57.147,93.875 59.895,100.305 63.011,108.96L65.371,108.11C62.241,99.415 59.437,92.832 56.957,88.403C55.72,86.194 54.532,84.463 53.385,83.268C52.269,82.106 51.005,81.256 49.617,81.256C48.139,81.256 47.023,82.202 46.218,83.46C45.413,84.718 44.766,86.503 44.233,88.723C43.163,93.184 42.466,99.789 42.118,108.485L44.624,108.585ZM63.011,108.96C66.141,117.655 68.945,124.238 71.425,128.667C72.662,130.877 73.851,132.608 74.998,133.803C76.113,134.964 77.378,135.815 78.765,135.815C80.243,135.815 81.359,134.868 82.164,133.61C82.969,132.352 83.616,130.567 84.149,128.347C85.22,123.887 85.917,117.281 86.265,108.585L83.758,108.485C83.412,117.14 82.721,123.547 81.71,127.761C81.202,129.879 80.634,131.347 80.051,132.258C79.468,133.169 79.023,133.306 78.765,133.306C78.418,133.306 77.774,133.072 76.807,132.065C75.872,131.091 74.805,129.569 73.614,127.441C71.236,123.195 68.487,116.765 65.371,108.11L63.011,108.96ZM86.265,108.585C86.611,99.931 87.302,93.524 88.313,89.309C88.821,87.192 89.389,85.723 89.972,84.812C90.555,83.901 91,83.764 91.258,83.764C91.605,83.764 92.249,83.998 93.216,85.005C94.151,85.979 95.218,87.501 96.409,89.629C98.787,93.875 101.536,100.305 104.652,108.96L107.012,108.11C103.882,99.415 101.078,92.832 98.598,88.403C97.361,86.194 96.172,84.463 95.025,83.268C93.91,82.106 92.645,81.256 91.258,81.256C89.78,81.256 88.664,82.202 87.859,83.46C87.054,84.718 86.407,86.503 85.874,88.723C84.803,93.184 84.106,99.789 83.758,108.485L86.265,108.585ZM104.652,108.96C107.782,117.655 110.586,124.238 113.066,128.667C114.303,130.877 115.491,132.608 116.638,133.803C117.754,134.964 119.018,135.815 120.406,135.815C121.884,135.815 123,134.868 123.805,133.61C124.61,132.352 125.257,130.567 125.79,128.347C126.86,123.887 127.557,117.281 127.905,108.585L125.399,108.485C125.053,117.14 124.362,123.547 123.35,127.761C122.842,129.879 122.275,131.347 121.692,132.258C121.109,133.169 120.663,133.306 120.406,133.306C120.059,133.306 119.415,133.072 118.448,132.065C117.513,131.091 116.446,129.569 115.254,127.441C112.876,123.195 110.128,116.765 107.012,108.11L104.652,108.96ZM127.905,108.585C128.251,99.931 128.942,93.524 129.954,89.309C130.462,87.192 131.029,85.723 131.612,84.812C132.195,83.901 132.641,83.764 132.898,83.764C133.245,83.764 133.89,83.998 134.856,85.005C135.791,85.979 136.858,87.501 138.05,89.629C140.428,93.875 143.176,100.305 146.292,108.96L148.652,108.11C145.522,99.415 142.719,92.832 140.239,88.403C139.001,86.194 137.813,84.463 136.666,83.268C135.55,82.106 134.286,81.256 132.898,81.256C131.42,81.256 130.304,82.202 129.499,83.46C128.694,84.718 128.047,86.503 127.515,88.723C126.444,93.184 125.747,99.789 125.399,108.485L127.905,108.585ZM146.292,108.96C149.423,117.655 152.226,124.238 154.706,128.667C155.944,130.877 157.132,132.608 158.279,133.803C159.394,134.964 160.659,135.815 162.047,135.815C163.524,135.815 164.64,134.868 165.445,133.61C166.25,132.352 166.897,130.567 167.43,128.347C168.501,123.887 169.198,117.281 169.546,108.585L167.039,108.485C166.693,117.14 166.003,123.547 164.991,127.761C164.483,129.879 163.915,131.347 163.332,132.258C162.749,133.169 162.304,133.306 162.047,133.306C161.699,133.306 161.055,133.072 160.089,132.065C159.154,131.091 158.086,129.569 156.895,127.441C154.517,123.195 151.768,116.765 148.652,108.11L146.292,108.96ZM169.546,108.585C169.892,99.931 170.583,93.524 171.594,89.309C172.102,87.192 172.67,85.723 173.253,84.812C173.836,83.901 174.281,83.764 174.539,83.764C174.886,83.764 175.53,83.998 176.497,85.005C177.432,85.979 178.499,87.501 179.69,89.629C182.069,93.875 184.817,100.305 187.933,108.96L190.293,108.11C187.163,99.415 184.359,92.832 181.879,88.403C180.642,86.194 179.453,84.463 178.306,83.268C177.191,82.106 175.927,81.256 174.539,81.256C173.061,81.256 171.945,82.202 171.14,83.46C170.335,84.718 169.688,86.503 169.155,88.723C168.085,93.184 167.387,99.789 167.039,108.485L169.546,108.585ZM187.933,108.96C191.063,117.655 193.867,124.238 196.347,128.667C197.584,130.877 198.772,132.608 199.92,133.803C201.035,134.964 202.298,135.815 203.686,135.815C205.164,135.815 206.28,134.868 207.086,133.61C207.89,132.352 208.538,130.567 209.07,128.347C210.14,123.887 210.838,117.281 211.186,108.585L208.68,108.485C208.334,117.14 207.642,123.547 206.632,127.761C206.124,129.879 205.556,131.347 204.972,132.258C204.39,133.169 203.944,133.306 203.686,133.306C203.34,133.306 202.696,133.072 201.729,132.065C200.794,131.091 199.727,129.569 198.535,127.441C196.157,123.195 193.409,116.765 190.293,108.11L187.933,108.96Z" fill="#FE6610"/>
<path d="M2.984,65.383C3.33,56.728 4.021,50.321 5.032,46.107C5.54,43.99 6.108,42.521 6.691,41.61C7.274,40.699 7.719,40.562 7.977,40.562C8.324,40.562 8.968,40.796 9.935,41.803C10.87,42.777 11.937,44.299 13.128,46.427C15.506,50.673 18.255,57.103 21.371,65.758L23.731,64.908C20.601,56.213 17.797,49.63 15.317,45.201C14.08,42.991 12.891,41.26 11.744,40.066C10.629,38.904 9.364,38.053 7.977,38.053C6.499,38.053 5.383,39 4.578,40.258C3.773,41.516 3.126,43.301 2.593,45.521C1.522,49.982 0.825,56.587 0.477,65.283L2.984,65.383ZM21.371,65.758C24.501,74.453 27.304,81.036 29.784,85.465C31.022,87.674 32.21,89.405 33.357,90.6C34.473,91.762 35.737,92.613 37.125,92.613C38.603,92.613 39.719,91.666 40.524,90.408C41.329,89.15 41.976,87.365 42.509,85.145C43.579,80.684 44.276,74.079 44.624,65.383L42.118,65.283C41.772,73.938 41.081,80.344 40.069,84.559C39.561,86.676 38.994,88.145 38.411,89.056C37.828,89.967 37.382,90.104 37.125,90.104C36.778,90.104 36.133,89.87 35.167,88.863C34.232,87.889 33.165,86.367 31.973,84.239C29.595,79.993 26.847,73.563 23.731,64.908L21.371,65.758ZM44.624,65.383C44.97,56.728 45.661,50.321 46.673,46.107C47.181,43.99 47.748,42.521 48.331,41.61C48.914,40.699 49.36,40.562 49.617,40.562C49.964,40.562 50.608,40.796 51.575,41.803C52.51,42.777 53.577,44.299 54.769,46.427C57.147,50.673 59.895,57.103 63.011,65.758L65.371,64.908C62.241,56.213 59.437,49.63 56.957,45.201C55.72,42.991 54.532,41.26 53.385,40.066C52.269,38.904 51.005,38.053 49.617,38.053C48.139,38.053 47.023,39 46.218,40.258C45.413,41.516 44.766,43.301 44.233,45.521C43.163,49.982 42.466,56.587 42.118,65.283L44.624,65.383ZM63.011,65.758C66.141,74.453 68.945,81.036 71.425,85.465C72.662,87.674 73.851,89.405 74.998,90.6C76.113,91.762 77.378,92.613 78.765,92.613C80.243,92.613 81.359,91.666 82.164,90.408C82.969,89.15 83.616,87.365 84.149,85.145C85.22,80.684 85.917,74.079 86.265,65.383L83.758,65.283C83.412,73.938 82.721,80.344 81.71,84.559C81.202,86.676 80.634,88.145 80.051,89.056C79.468,89.967 79.023,90.104 78.765,90.104C78.418,90.104 77.774,89.87 76.807,88.863C75.872,87.889 74.805,86.367 73.614,84.239C71.236,79.993 68.487,73.563 65.371,64.908L63.011,65.758ZM86.265,65.383C86.611,56.728 87.302,50.321 88.313,46.107C88.821,43.99 89.389,42.521 89.972,41.61C90.555,40.699 91,40.562 91.258,40.562C91.605,40.562 92.249,40.796 93.216,41.803C94.151,42.777 95.218,44.299 96.409,46.427C98.787,50.673 101.536,57.103 104.652,65.758L107.012,64.908C103.882,56.213 101.078,49.63 98.598,45.201C97.361,42.991 96.172,41.26 95.025,40.066C93.91,38.904 92.645,38.053 91.258,38.053C89.78,38.053 88.664,39 87.859,40.258C87.054,41.516 86.407,43.301 85.874,45.521C84.803,49.982 84.106,56.587 83.758,65.283L86.265,65.383ZM104.652,65.758C107.782,74.453 110.586,81.036 113.066,85.465C114.303,87.674 115.491,89.405 116.638,90.6C117.754,91.762 119.018,92.613 120.406,92.613C121.884,92.613 123,91.666 123.805,90.408C124.61,89.15 125.257,87.365 125.79,85.145C126.86,80.684 127.557,74.079 127.905,65.383L125.399,65.283C125.053,73.938 124.362,80.344 123.35,84.559C122.842,86.676 122.275,88.145 121.692,89.056C121.109,89.967 120.663,90.104 120.406,90.104C120.059,90.104 119.415,89.87 118.448,88.863C117.513,87.889 116.446,86.367 115.254,84.239C112.876,79.993 110.128,73.563 107.012,64.908L104.652,65.758ZM127.905,65.383C128.251,56.728 128.942,50.321 129.954,46.107C130.462,43.99 131.029,42.521 131.612,41.61C132.195,40.699 132.641,40.562 132.898,40.562C133.245,40.562 133.89,40.796 134.856,41.803C135.791,42.777 136.858,44.299 138.05,46.427C140.428,50.673 143.176,57.103 146.292,65.758L148.652,64.908C145.522,56.213 142.719,49.63 140.239,45.201C139.001,42.991 137.813,41.26 136.666,40.066C135.55,38.904 134.286,38.053 132.898,38.053C131.42,38.053 130.304,39 129.499,40.258C128.694,41.516 128.047,43.301 127.515,45.521C126.444,49.982 125.747,56.587 125.399,65.283L127.905,65.383ZM146.292,65.758C149.423,74.453 152.226,81.036 154.706,85.465C155.944,87.674 157.132,89.405 158.279,90.6C159.394,91.762 160.659,92.613 162.047,92.613C163.524,92.613 164.64,91.666 165.445,90.408C166.25,89.15 166.897,87.365 167.43,85.145C168.501,80.684 169.198,74.079 169.546,65.383L167.039,65.283C166.693,73.938 166.003,80.344 164.991,84.559C164.483,86.676 163.915,88.145 163.332,89.056C162.749,89.967 162.304,90.104 162.047,90.104C161.699,90.104 161.055,89.87 160.089,88.863C159.154,87.889 158.086,86.367 156.895,84.239C154.517,79.993 151.768,73.563 148.652,64.908L146.292,65.758ZM169.546,65.383C169.892,56.728 170.583,50.321 171.594,46.107C172.102,43.99 172.67,42.521 173.253,41.61C173.836,40.699 174.281,40.562 174.539,40.562C174.886,40.562 175.53,40.796 176.497,41.803C177.432,42.777 178.499,44.299 179.69,46.427C182.069,50.673 184.817,57.103 187.933,65.758L190.293,64.908C187.163,56.213 184.359,49.63 181.879,45.201C180.642,42.991 179.453,41.26 178.306,40.066C177.191,38.904 175.927,38.053 174.539,38.053C173.061,38.053 171.945,39 171.14,40.258C170.335,41.516 169.688,43.301 169.155,45.521C168.085,49.982 167.387,56.587 167.039,65.283L169.546,65.383ZM187.933,65.758C191.063,74.453 193.867,81.036 196.347,85.465C197.584,87.674 198.772,89.405 199.92,90.6C201.035,91.762 202.298,92.613 203.686,92.613C205.164,92.613 206.28,91.666 207.086,90.408C207.89,89.15 208.538,87.365 209.07,85.145C210.14,80.684 210.838,74.079 211.186,65.383L208.68,65.283C208.334,73.938 207.642,80.344 206.632,84.559C206.124,86.676 205.556,88.145 204.972,89.056C204.39,89.967 203.944,90.104 203.686,90.104C203.34,90.104 202.696,89.87 201.729,88.863C200.794,87.889 199.727,86.367 198.535,84.239C196.157,79.993 193.409,73.563 190.293,64.908L187.933,65.758Z" fill="#FE6610"/>
<path d="M2.984,26.345C3.33,17.69 4.021,11.283 5.032,7.069C5.54,4.951 6.108,3.483 6.691,2.572C7.274,1.661 7.719,1.524 7.977,1.524C8.324,1.524 8.968,1.758 9.935,2.765C10.87,3.739 11.937,5.261 13.128,7.389C15.506,11.635 18.255,18.065 21.371,26.72L23.731,25.87C20.601,17.175 17.797,10.592 15.317,6.163C14.08,3.953 12.891,2.222 11.744,1.028C10.629,-0.134 9.364,-0.985 7.977,-0.985C6.499,-0.985 5.383,-0.038 4.578,1.22C3.773,2.478 3.126,4.263 2.593,6.483C1.522,10.943 0.825,17.549 0.477,26.245L2.984,26.345ZM21.371,26.72C24.501,35.415 27.304,41.998 29.784,46.427C31.022,48.636 32.21,50.367 33.357,51.562C34.473,52.724 35.737,53.575 37.125,53.575C38.603,53.575 39.719,52.628 40.524,51.37C41.329,50.112 41.976,48.327 42.509,46.107C43.579,41.646 44.276,35.041 44.624,26.345L42.118,26.245C41.772,34.9 41.081,41.306 40.069,45.521C39.561,47.638 38.994,49.107 38.411,50.018C37.828,50.929 37.382,51.066 37.125,51.066C36.778,51.066 36.133,50.832 35.167,49.825C34.232,48.851 33.165,47.329 31.973,45.201C29.595,40.955 26.847,34.525 23.731,25.87L21.371,26.72ZM44.624,26.345C44.97,17.69 45.661,11.283 46.673,7.069C47.181,4.951 47.748,3.483 48.331,2.572C48.914,1.661 49.36,1.524 49.617,1.524C49.964,1.524 50.608,1.758 51.575,2.765C52.51,3.739 53.577,5.261 54.769,7.389C57.147,11.635 59.895,18.065 63.011,26.72L65.371,25.87C62.241,17.175 59.437,10.592 56.957,6.163C55.72,3.953 54.532,2.222 53.385,1.028C52.269,-0.134 51.005,-0.985 49.617,-0.985C48.139,-0.985 47.023,-0.038 46.218,1.22C45.413,2.478 44.766,4.263 44.233,6.483C43.163,10.943 42.466,17.549 42.118,26.245L44.624,26.345ZM63.011,26.72C66.141,35.415 68.945,41.998 71.425,46.427C72.662,48.636 73.851,50.367 74.998,51.562C76.113,52.724 77.378,53.575 78.765,53.575C80.243,53.575 81.359,52.628 82.164,51.37C82.969,50.112 83.616,48.327 84.149,46.107C85.22,41.646 85.917,35.041 86.265,26.345L83.758,26.245C83.412,34.9 82.721,41.306 81.71,45.521C81.202,47.638 80.634,49.107 80.051,50.018C79.468,50.929 79.023,51.066 78.765,51.066C78.418,51.066 77.774,50.832 76.807,49.825C75.872,48.851 74.805,47.329 73.614,45.201C71.236,40.955 68.487,34.525 65.371,25.87L63.011,26.72ZM86.265,26.345C86.611,17.69 87.302,11.283 88.313,7.069C88.821,4.951 89.389,3.483 89.972,2.572C90.555,1.661 91,1.524 91.258,1.524C91.605,1.524 92.249,1.758 93.216,2.765C94.151,3.739 95.218,5.261 96.409,7.389C98.787,11.635 101.536,18.065 104.652,26.72L107.012,25.87C103.882,17.175 101.078,10.592 98.598,6.163C97.361,3.953 96.172,2.222 95.025,1.028C93.91,-0.134 92.645,-0.985 91.258,-0.985C89.78,-0.985 88.664,-0.038 87.859,1.22C87.054,2.478 86.407,4.263 85.874,6.483C84.803,10.943 84.106,17.549 83.758,26.245L86.265,26.345ZM104.652,26.72C107.782,35.415 110.586,41.998 113.066,46.427C114.303,48.636 115.491,50.367 116.638,51.562C117.754,52.724 119.018,53.575 120.406,53.575C121.884,53.575 123,52.628 123.805,51.37C124.61,50.112 125.257,48.327 125.79,46.107C126.86,41.646 127.557,35.041 127.905,26.345L125.399,26.245C125.053,34.9 124.362,41.306 123.35,45.521C122.842,47.638 122.275,49.107 121.692,50.018C121.109,50.929 120.663,51.066 120.406,51.066C120.059,51.066 119.415,50.832 118.448,49.825C117.513,48.851 116.446,47.329 115.254,45.201C112.876,40.955 110.128,34.525 107.012,25.87L104.652,26.72ZM127.905,26.345C128.251,17.69 128.942,11.283 129.954,7.069C130.462,4.951 131.029,3.483 131.612,2.572C132.195,1.661 132.641,1.524 132.898,1.524C133.245,1.524 133.89,1.758 134.856,2.765C135.791,3.739 136.858,5.261 138.05,7.389C140.428,11.635 143.176,18.065 146.292,26.72L148.652,25.87C145.522,17.175 142.719,10.592 140.239,6.163C139.001,3.953 137.813,2.222 136.666,1.028C135.55,-0.134 134.286,-0.985 132.898,-0.985C131.42,-0.985 130.304,-0.038 129.499,1.22C128.694,2.478 128.047,4.263 127.515,6.483C126.444,10.943 125.747,17.549 125.399,26.245L127.905,26.345ZM146.292,26.72C149.423,35.415 152.226,41.998 154.706,46.427C155.944,48.636 157.132,50.367 158.279,51.562C159.394,52.724 160.659,53.575 162.047,53.575C163.524,53.575 164.64,52.628 165.445,51.37C166.25,50.112 166.897,48.327 167.43,46.107C168.501,41.646 169.198,35.041 169.546,26.345L167.039,26.245C166.693,34.9 166.003,41.306 164.991,45.521C164.483,47.638 163.915,49.107 163.332,50.018C162.749,50.929 162.304,51.066 162.047,51.066C161.699,51.066 161.055,50.832 160.089,49.825C159.154,48.851 158.086,47.329 156.895,45.201C154.517,40.955 151.768,34.525 148.652,25.87L146.292,26.72ZM169.546,26.345C169.892,17.69 170.583,11.283 171.594,7.069C172.102,4.951 172.67,3.483 173.253,2.572C173.836,1.661 174.281,1.524 174.539,1.524C174.886,1.524 175.53,1.758 176.497,2.765C177.432,3.739 178.499,5.261 179.69,7.389C182.069,11.635 184.817,18.065 187.933,26.72L190.293,25.87C187.163,17.175 184.359,10.592 181.879,6.163C180.642,3.953 179.453,2.222 178.306,1.028C177.191,-0.134 175.927,-0.985 174.539,-0.985C173.061,-0.985 171.945,-0.038 171.14,1.22C170.335,2.478 169.688,4.263 169.155,6.483C168.085,10.943 167.387,17.549 167.039,26.245L169.546,26.345ZM187.933,26.72C191.063,35.415 193.867,41.998 196.347,46.427C197.584,48.636 198.772,50.367 199.92,51.562C201.035,52.724 202.298,53.575 203.686,53.575C205.164,53.575 206.28,52.628 207.086,51.37C207.89,50.112 208.538,48.327 209.07,46.107C210.14,41.646 210.838,35.041 211.186,26.345L208.68,26.245C208.334,34.9 207.642,41.306 206.632,45.521C206.124,47.638 205.556,49.107 204.972,50.018C204.39,50.929 203.944,51.066 203.686,51.066C203.34,51.066 202.696,50.832 201.729,49.825C200.794,48.851 199.727,47.329 198.535,45.201C196.157,40.955 193.409,34.525 190.293,25.87L187.933,26.72Z" fill="#FE6610"/>
</svg>
