<svg width="90" height="136" viewBox="0 0 90 136" fill="none" xmlns="http://www.w3.org/2000/svg" xmlns:xlink="http://www.w3.org/1999/xlink">
<path d="M75.5,0.5L12.5,0.5C8.921,0.504 5.489,1.927 2.958,4.458C0.427,6.989 -0.996,10.421 -1,14L-1,122C-0.996,125.579 0.427,129.011 2.958,131.542C5.489,134.073 8.921,135.496 12.5,135.5L75.5,135.5C79.079,135.496 82.511,134.073 85.042,131.542C87.573,129.011 88.996,125.579 89,122L89,14C88.996,10.421 87.573,6.989 85.042,4.458C82.511,1.927 79.079,0.504 75.5,0.5L75.5,0.5ZM84.5,122C84.5,124.387 83.552,126.676 81.864,128.364C80.176,130.052 77.887,131 75.5,131L12.5,131C10.113,131 7.824,130.052 6.136,128.364C4.448,126.676 3.5,124.387 3.5,122L3.5,14C3.5,11.613 4.448,9.324 6.136,7.636C7.824,5.948 10.113,5 12.5,5L75.5,5C77.887,5 80.176,5.948 81.864,7.636C83.552,9.324 84.5,11.613 84.5,14L84.5,122Z" fill="#2DC071"/>
<path d="M48.5,113L39.5,113C37.71,113 35.993,113.711 34.727,114.977C33.461,116.243 32.75,117.96 32.75,119.75C32.75,121.54 33.461,123.257 34.727,124.523C35.993,125.789 37.71,126.5 39.5,126.5L48.5,126.5C50.29,126.5 52.007,125.789 53.273,124.523C54.539,123.257 55.25,121.54 55.25,119.75C55.25,117.96 54.539,116.243 53.273,114.977C52.007,113.711 50.29,113 48.5,113ZM48.5,122L39.5,122C38.903,122 38.331,121.763 37.909,121.341C37.487,120.919 37.25,120.347 37.25,119.75C37.25,119.153 37.487,118.581 37.909,118.159C38.331,117.737 38.903,117.5 39.5,117.5L48.5,117.5C49.097,117.5 49.669,117.737 50.091,118.159C50.513,118.581 50.75,119.153 50.75,119.75C50.75,120.347 50.513,120.919 50.091,121.341C49.669,121.763 49.097,122 48.5,122Z" fill="#2DC071"/>
<rect  x="28.25" y="9.5" width="4.5" height="4.5" fill="#2DC071"/>
<rect  x="37.25" y="9.5" width="13.5" height="4.5" fill="#2DC071"/>
<path d="M42.408,58.341C42.83,58.762 43.402,58.999 43.999,58.999C44.596,58.999 45.168,58.762 45.59,58.341L61.5,42.431C63.594,40.318 64.766,37.461 64.76,34.486C64.753,31.511 63.569,28.66 61.465,26.556C59.361,24.452 56.51,23.267 53.534,23.261C50.559,23.254 47.703,24.427 45.59,26.521L43.999,28.112L42.408,26.521C40.295,24.427 37.439,23.254 34.464,23.261C31.489,23.267 28.637,24.452 26.533,26.556C24.43,28.66 23.245,31.511 23.238,34.486C23.232,37.461 24.404,40.318 26.499,42.431L42.408,58.341ZM29.68,29.703C30.307,29.076 31.051,28.578 31.87,28.239C32.689,27.9 33.567,27.725 34.453,27.725C35.34,27.725 36.218,27.9 37.037,28.239C37.856,28.578 38.6,29.076 39.227,29.703L42.408,32.886C42.838,33.293 43.407,33.519 43.999,33.519C44.591,33.519 45.16,33.293 45.59,32.886L48.771,29.703C50.037,28.437 51.754,27.725 53.545,27.725C55.335,27.725 57.052,28.437 58.318,29.703C59.584,30.969 60.295,32.686 60.295,34.476C60.295,36.266 59.584,37.983 58.318,39.249L43.999,53.568L29.68,39.249C28.417,37.982 27.707,36.265 27.707,34.476C27.707,32.686 28.417,30.97 29.68,29.703L29.68,29.703Z" fill="#2DC071"/>
<path d="M59.525,78.245C59.328,77.835 59.009,77.495 58.612,77.273C58.215,77.05 57.759,76.955 57.307,77C56.857,77.039 56.43,77.212 56.08,77.496C55.73,77.781 55.474,78.164 55.344,78.596L51.112,92.699L46.201,69.771C46.093,69.279 45.824,68.837 45.436,68.516C45.049,68.195 44.564,68.014 44.061,68C43.556,67.983 43.06,68.137 42.654,68.438C42.249,68.74 41.958,69.17 41.829,69.659L37.201,86.635L34.914,78.632C34.792,78.194 34.539,77.804 34.19,77.513C33.841,77.222 33.412,77.043 32.959,77C32.507,76.955 32.051,77.048 31.654,77.269C31.256,77.49 30.936,77.827 30.736,78.236L26.859,86L12.5,86L12.5,90.5L28.25,90.5C28.668,90.501 29.078,90.384 29.434,90.164C29.789,89.945 30.077,89.63 30.264,89.256L32.176,85.431L35.086,95.619C35.22,96.089 35.504,96.503 35.895,96.797C36.285,97.092 36.761,97.251 37.25,97.25L37.264,97.25C37.755,97.248 38.232,97.084 38.621,96.784C39.011,96.485 39.292,96.066 39.421,95.592L43.739,79.763L48.549,102.221C48.654,102.709 48.918,103.149 49.3,103.471C49.682,103.793 50.161,103.978 50.66,103.998L50.75,103.998C51.234,103.998 51.705,103.842 52.094,103.553C52.482,103.264 52.767,102.858 52.906,102.394L58.024,85.325L59.986,89.249C60.172,89.625 60.459,89.941 60.815,90.162C61.171,90.383 61.581,90.5 62,90.5L75.5,90.5L75.5,86L63.39,86L59.525,78.245Z" fill="#2DC071"/>
</svg>
