<svg width="144" height="144" viewBox="0 0 144 144" fill="none" xmlns="http://www.w3.org/2000/svg" xmlns:xlink="http://www.w3.org/1999/xlink">
<rect  x="20.602" y="50.4" width="4.8" height="4.8" fill="#FC724D"/>
<rect  x="30.199" y="50.4" width="24" height="4.8" fill="#FC724D"/>
<rect  x="15.801" y="60" width="38.4" height="4.8" fill="#FC724D"/>
<rect  x="15.801" y="69.6" width="28.8" height="4.8" fill="#FC724D"/>
<rect  x="68.602" y="120" width="4.8" height="4.8" fill="#FC724D"/>
<rect  x="73.398" y="19.2" width="4.8" height="4.8" fill="#FC724D"/>
<rect  x="63.801" y="19.2" width="4.8" height="4.8" fill="#FC724D"/>
<path d="M131.001,48L109.401,48L109.401,19.2C109.401,13.898 105.103,9.6 99.801,9.6L42.201,9.6C36.899,9.6 32.601,13.898 32.601,19.2L32.601,40.8L11.001,40.8C7.024,40.8 3.801,44.023 3.801,48L3.801,76.8C3.801,80.776 7.024,84 11.001,84L32.601,84L32.601,124.8C32.601,130.101 36.899,134.4 42.201,134.4L99.801,134.4C105.103,134.4 109.401,130.101 109.401,124.8L109.401,96L131.001,96C134.977,96 138.201,92.776 138.201,88.8L138.201,55.2C138.201,51.223 134.977,48 131.001,48ZM37.401,19.2C37.401,16.549 39.55,14.4 42.201,14.4L99.801,14.4C102.452,14.4 104.601,16.549 104.601,19.2L104.601,28.8L37.401,28.8L37.401,19.2ZM11.001,79.2C9.675,79.2 8.601,78.125 8.601,76.8L8.601,48C8.601,46.674 9.675,45.6 11.001,45.6L59.001,45.6C60.326,45.6 61.401,46.674 61.401,48L61.401,76.8C61.401,78.125 60.326,79.2 59.001,79.2L51.801,79.2C50.475,79.2 49.401,80.274 49.401,81.6L49.401,86.714L38.733,79.603C38.338,79.341 37.875,79.2 37.401,79.2L11.001,79.2ZM104.601,124.8C104.601,127.451 102.452,129.6 99.801,129.6L42.201,129.6C39.55,129.6 37.401,127.451 37.401,124.8L37.401,115.2L104.601,115.2L104.601,124.8ZM104.601,110.4L37.401,110.4L37.401,84.48L50.469,93.192C51.571,93.927 53.062,93.63 53.797,92.527C54.059,92.134 54.2,91.672 54.201,91.2L54.201,84L59.001,84C62.977,84 66.201,80.776 66.201,76.8L66.201,48C66.201,44.023 62.977,40.8 59.001,40.8L37.401,40.8L37.401,33.6L104.601,33.6L104.601,48L83.001,48C79.024,48 75.801,51.223 75.801,55.2L75.801,88.8C75.801,92.776 79.024,96 83.001,96L87.801,96L87.801,103.2C87.801,104.525 88.875,105.6 90.2,105.6C90.675,105.6 91.138,105.46 91.533,105.196L104.601,96.48L104.601,110.4ZM133.401,88.8C133.401,90.125 132.326,91.2 131.001,91.2L104.601,91.2C104.127,91.2 103.664,91.341 103.269,91.603L92.601,98.714L92.601,93.6C92.601,92.274 91.526,91.2 90.201,91.2L83.001,91.2C81.675,91.2 80.601,90.125 80.601,88.8L80.601,55.2C80.601,53.874 81.675,52.8 83.001,52.8L131.001,52.8C132.326,52.8 133.401,53.874 133.401,55.2L133.401,88.8Z" fill="#FC724D"/>
<path d="M27.8,127.2L27.8,108L23,108L23,127.2C23.01,136.474 30.526,143.989 39.8,144L39.8,139.2C33.176,139.192 27.808,133.824 27.8,127.2Z" fill="#FC724D"/>
<rect  x="23" y="98.4" width="4.8" height="4.8" fill="#FC724D"/>
<path d="M102.2,0L95,0L95,4.8L102.2,4.8C108.824,4.808 114.192,10.176 114.2,16.8L114.2,28.8L119,28.8L119,16.8C118.99,7.526 111.474,0.011 102.2,0Z" fill="#FC724D"/>
<rect  x="114.199" y="33.6" width="4.8" height="4.8" fill="#FC724D"/>
<path d="M119.002,64.8L114.202,64.8L114.202,60C114.202,58.674 113.127,57.6 111.802,57.6L102.202,57.6C100.876,57.6 99.802,58.674 99.802,60L99.802,64.8L95.002,64.8C93.676,64.8 92.602,65.874 92.602,67.2L92.602,76.8C92.602,78.125 93.676,79.2 95.002,79.2L99.802,79.2L99.802,84C99.802,85.325 100.876,86.4 102.202,86.4L111.802,86.4C113.127,86.4 114.202,85.325 114.202,84L114.202,79.2L119.002,79.2C120.327,79.2 121.402,78.125 121.402,76.8L121.402,67.2C121.402,65.874 120.327,64.8 119.002,64.8ZM116.602,74.4L111.802,74.4C110.476,74.4 109.402,75.474 109.402,76.8L109.402,81.6L104.602,81.6L104.602,76.8C104.602,75.474 103.527,74.4 102.202,74.4L97.402,74.4L97.402,69.6L102.202,69.6C103.527,69.6 104.602,68.525 104.602,67.2L104.602,62.4L109.402,62.4L109.402,67.2C109.402,68.525 110.476,69.6 111.802,69.6L116.602,69.6L116.602,74.4Z" fill="#FC724D"/>
</svg>
