<svg width="54" height="54" viewBox="0 0 54 54" fill="none" xmlns="http://www.w3.org/2000/svg" xmlns:xlink="http://www.w3.org/1999/xlink">
<path d="M6.243,46.294L53.251,46.294L53.251,53.009L-0.473,53.009L-0.473,-0.714L6.243,-0.714L6.243,46.294ZM14.637,42.936C13.956,42.937 13.282,42.801 12.656,42.534C12.029,42.268 11.463,41.877 10.992,41.386C10.521,40.894 10.154,40.313 9.914,39.675C9.674,39.038 9.565,38.359 9.595,37.679C9.625,36.999 9.792,36.332 10.087,35.718C10.382,35.105 10.798,34.557 11.31,34.109C11.823,33.661 12.421,33.321 13.068,33.11C13.715,32.899 14.399,32.822 15.077,32.883L20.49,23.861C19.995,23.101 19.714,22.221 19.678,21.315C19.641,20.409 19.85,19.509 20.282,18.712C20.715,17.915 21.354,17.249 22.134,16.785C22.913,16.321 23.803,16.076 24.71,16.076C25.617,16.076 26.507,16.321 27.287,16.785C28.066,17.249 28.706,17.915 29.138,18.712C29.57,19.509 29.779,20.409 29.743,21.315C29.706,22.221 29.426,23.101 28.931,23.861L34.343,32.883C34.6,32.86 34.858,32.858 35.116,32.876L44.054,17.236C43.412,16.295 43.107,15.164 43.19,14.028C43.274,12.892 43.74,11.818 44.512,10.981C45.285,10.143 46.319,9.593 47.444,9.419C48.57,9.245 49.722,9.458 50.711,10.023C51.7,10.588 52.469,11.471 52.891,12.529C53.314,13.587 53.365,14.757 53.036,15.848C52.708,16.939 52.019,17.886 51.083,18.535C50.147,19.185 49.018,19.497 47.882,19.422L38.943,35.062C39.457,35.815 39.756,36.694 39.81,37.604C39.863,38.514 39.669,39.421 39.247,40.23C38.825,41.038 38.192,41.716 37.415,42.193C36.638,42.669 35.746,42.926 34.835,42.936C33.923,42.945 33.026,42.707 32.239,42.247C31.452,41.786 30.805,41.121 30.367,40.322C29.928,39.523 29.715,38.62 29.749,37.709C29.784,36.798 30.065,35.913 30.563,35.149L25.15,26.127C24.857,26.154 24.563,26.154 24.27,26.127L18.858,35.149C19.353,35.909 19.634,36.789 19.671,37.696C19.707,38.602 19.498,39.502 19.066,40.299C18.634,41.097 17.994,41.763 17.214,42.227C16.435,42.691 15.544,42.936 14.637,42.936L14.637,42.936Z" transform="rotate(-60 26.389 26.147)" fill="#FFFFFF"/>
</svg>
