<svg width="24" height="20" viewBox="0 0 24 20" fill="none" xmlns="http://www.w3.org/2000/svg" xmlns:xlink="http://www.w3.org/1999/xlink">
<path d="M0,10C0,9.621 0.158,9.258 0.439,8.99C0.721,8.722 1.102,8.572 1.5,8.572L18.877,8.572L12.437,2.441C12.155,2.173 11.997,1.809 11.997,1.43C11.997,1.051 12.155,0.687 12.437,0.419C12.718,0.151 13.1,0 13.499,0C13.897,0 14.279,0.151 14.56,0.419L23.559,8.989C23.699,9.121 23.81,9.279 23.885,9.453C23.961,9.626 24,9.812 24,10C24,10.188 23.961,10.374 23.885,10.547C23.81,10.721 23.699,10.879 23.559,11.011L14.56,19.581C14.279,19.849 13.897,20 13.499,20C13.1,20 12.718,19.849 12.437,19.581C12.155,19.313 11.997,18.949 11.997,18.57C11.997,18.191 12.155,17.827 12.437,17.559L18.877,11.428L1.5,11.428C1.102,11.428 0.721,11.278 0.439,11.01C0.158,10.742 0,10.379 0,10Z" clip-rule="evenodd" fill-rule="evenodd" fill="#FFFFFF"/>
</svg>
