<svg width="38" height="38" viewBox="0 0 38 38" fill="none" xmlns="http://www.w3.org/2000/svg" xmlns:xlink="http://www.w3.org/1999/xlink">
<path d="M36.225,12.839C36.11,12.5 35.897,12.201 35.614,11.981C35.331,11.76 34.99,11.628 34.633,11.599L24.174,10.768L19.649,0.75C19.505,0.427 19.27,0.153 18.974,-0.039C18.677,-0.231 18.332,-0.334 17.978,-0.334C17.625,-0.334 17.279,-0.232 16.982,-0.04C16.686,0.152 16.451,0.426 16.306,0.748L11.781,10.768L1.322,11.599C0.971,11.627 0.635,11.755 0.355,11.969C0.075,12.183 -0.138,12.473 -0.258,12.804C-0.378,13.136 -0.4,13.495 -0.321,13.839C-0.242,14.182 -0.066,14.496 0.187,14.742L7.915,22.276L5.182,34.112C5.099,34.47 5.126,34.845 5.258,35.188C5.391,35.531 5.624,35.826 5.927,36.035C6.229,36.244 6.588,36.357 6.955,36.36C7.323,36.363 7.683,36.255 7.989,36.051L17.978,29.392L27.966,36.051C28.279,36.258 28.647,36.365 29.022,36.357C29.397,36.349 29.761,36.226 30.064,36.005C30.367,35.784 30.595,35.475 30.717,35.121C30.84,34.766 30.851,34.383 30.749,34.022L27.394,22.281L35.715,14.793C36.26,14.301 36.46,13.535 36.225,12.839L36.225,12.839Z" fill="#F3CD03"/>
</svg>
