<svg width="28" height="28" viewBox="0 0 28 28" fill="none" xmlns="http://www.w3.org/2000/svg" xmlns:xlink="http://www.w3.org/1999/xlink">
<path d="M27,4.614L25.685,5.051C23.843,5.628 21.93,5.947 20,6C18.266,6 16.678,5.093 14.996,4.132C13.162,3.084 11.266,2 9,2C6.123,2 2.915,4.206 1,5.772L1,0L-1,0L-1,26C-0.999,26.53 -0.789,27.039 -0.414,27.414C-0.039,27.789 0.47,27.999 1,28L27,28L27,4.614ZM1,18.294C2.874,15.376 6.56,11 9,11C10.638,11 11.96,12.102 13.36,13.269C14.897,14.549 16.638,16 19,16C21.236,15.893 23.362,14.997 25,13.471L25,18.427C23.156,19.428 21.098,19.967 19,20C17.395,19.957 15.811,19.636 14.316,19.051C12.618,18.395 10.82,18.039 9,18C6.073,18 2.932,20.959 1,23.158L1,18.294ZM9,4C10.734,4 12.322,4.907 14.004,5.868C15.838,6.916 17.734,8 20,8C21.688,7.972 23.366,7.744 25,7.322L25,10.643C24.317,11.446 21.916,14 19,14C17.362,14 16.04,12.898 14.64,11.731C13.103,10.451 11.362,9 9,9C6.064,9 2.937,12.34 1,14.845L1,8.424C2.546,6.966 6.259,4 9,4ZM1.249,26C2.862,23.909 6.41,20 9,20C10.605,20.043 12.189,20.364 13.684,20.949C15.382,21.605 17.18,21.961 19,22C21.072,21.98 23.116,21.524 25,20.66L25,26L1.249,26Z" fill="#E77C40"/>
</svg>
