<svg width="32" height="30" viewBox="0 0 32 30" fill="none" xmlns="http://www.w3.org/2000/svg" xmlns:xlink="http://www.w3.org/1999/xlink">
<path d="M31.667,25.667L3,25.667L3,-0.333C3,-0.516 2.85,-0.666 2.667,-0.666L0.333,-0.666C0.15,-0.666 0,-0.516 0,-0.333L0,28.334C0,28.517 0.15,28.667 0.333,28.667L31.667,28.667C31.85,28.667 32,28.517 32,28.334L32,26.001C32,25.817 31.85,25.667 31.667,25.667ZM6,23.001L28.333,23.001C28.517,23.001 28.667,22.851 28.667,22.667L28.667,4.501C28.667,4.201 28.304,4.055 28.096,4.263L19.333,13.026L14.108,7.859C14.046,7.797 13.961,7.762 13.873,7.762C13.785,7.762 13.7,7.797 13.637,7.859L5.762,15.759C5.732,15.79 5.708,15.826 5.691,15.866C5.675,15.906 5.666,15.949 5.667,15.992L5.667,22.667C5.667,22.851 5.817,23.001 6,23.001Z" fill="#0061FF"/>
</svg>
