<svg width="44" height="36" viewBox="0 0 44 36" fill="none" xmlns="http://www.w3.org/2000/svg" xmlns:xlink="http://www.w3.org/1999/xlink">
<path d="M12.821,36C29.426,36 38.509,22.146 38.509,10.153C38.509,9.766 38.509,9.373 38.493,8.985C40.261,7.696 41.787,6.1 43,4.272C41.348,5.005 39.598,5.489 37.805,5.706C39.693,4.57 41.107,2.782 41.785,0.675C40.011,1.733 38.069,2.476 36.045,2.871C34.685,1.411 32.884,0.445 30.922,0.12C28.961,-0.204 26.947,0.132 25.195,1.076C23.442,2.02 22.047,3.52 21.227,5.344C20.406,7.167 20.206,9.212 20.656,11.161C17.067,10.98 13.555,10.041 10.349,8.405C7.143,6.77 4.315,4.474 2.047,1.666C0.896,3.668 0.544,6.037 1.064,8.291C1.584,10.544 2.937,12.514 4.846,13.8C3.415,13.751 2.015,13.364 0.76,12.67L0.76,12.795C0.762,14.893 1.484,16.925 2.803,18.549C4.122,20.172 5.957,21.288 7.998,21.706C7.223,21.921 6.423,22.028 5.619,22.024C5.053,22.026 4.487,21.973 3.931,21.867C4.508,23.672 5.631,25.251 7.143,26.382C8.656,27.512 10.482,28.138 12.365,28.172C9.166,30.702 5.213,32.075 1.145,32.068C0.428,32.071 -0.288,32.029 -1,31.943C3.129,34.594 7.925,36.002 12.821,36L12.821,36Z" fill="#FC724D"/>
</svg>
