<svg width="38" height="38" viewBox="0 0 38 38" fill="none" xmlns="http://www.w3.org/2000/svg" xmlns:xlink="http://www.w3.org/1999/xlink">
<path d="M0,1.267C0,0.931 0.133,0.609 0.371,0.371C0.609,0.133 0.931,0 1.267,0L5.067,0C5.349,0 5.624,0.095 5.846,0.269C6.069,0.443 6.227,0.686 6.296,0.96L7.322,5.067L36.734,5.067C36.92,5.067 37.104,5.108 37.272,5.187C37.441,5.266 37.59,5.382 37.708,5.525C37.827,5.668 37.913,5.835 37.959,6.015C38.006,6.195 38.013,6.384 37.978,6.566L34.178,26.833C34.124,27.123 33.97,27.385 33.743,27.574C33.516,27.763 33.23,27.866 32.934,27.867L10.134,27.867C9.838,27.866 9.552,27.763 9.325,27.574C9.098,27.385 8.944,27.123 8.89,26.833L5.092,6.604L4.079,2.533L1.267,2.533C0.931,2.533 0.609,2.4 0.371,2.162C0.133,1.925 0,1.603 0,1.267ZM7.859,7.6L11.185,25.333L31.883,25.333L35.209,7.6L7.859,7.6ZM12.667,27.867C11.323,27.867 10.034,28.4 9.084,29.351C8.134,30.301 7.6,31.59 7.6,32.933C7.6,34.277 8.134,35.566 9.084,36.516C10.034,37.466 11.323,38 12.667,38C14.011,38 15.3,37.466 16.25,36.516C17.2,35.566 17.734,34.277 17.734,32.933C17.734,31.59 17.2,30.301 16.25,29.351C15.3,28.4 14.011,27.867 12.667,27.867ZM30.401,27.867C29.057,27.867 27.768,28.4 26.818,29.351C25.868,30.301 25.334,31.59 25.334,32.933C25.334,34.277 25.868,35.566 26.818,36.516C27.768,37.466 29.057,38 30.401,38C31.745,38 33.034,37.466 33.984,36.516C34.934,35.566 35.468,34.277 35.468,32.933C35.468,31.59 34.934,30.301 33.984,29.351C33.034,28.4 31.745,27.867 30.401,27.867ZM12.667,30.4C13.339,30.4 13.983,30.667 14.458,31.142C14.934,31.617 15.2,32.261 15.2,32.933C15.2,33.605 14.934,34.25 14.458,34.725C13.983,35.2 13.339,35.467 12.667,35.467C11.995,35.467 11.351,35.2 10.876,34.725C10.401,34.25 10.134,33.605 10.134,32.933C10.134,32.261 10.401,31.617 10.876,31.142C11.351,30.667 11.995,30.4 12.667,30.4ZM30.401,30.4C31.073,30.4 31.717,30.667 32.192,31.142C32.667,31.617 32.934,32.261 32.934,32.933C32.934,33.605 32.667,34.25 32.192,34.725C31.717,35.2 31.073,35.467 30.401,35.467C29.729,35.467 29.085,35.2 28.61,34.725C28.134,34.25 27.868,33.605 27.868,32.933C27.868,32.261 28.134,31.617 28.61,31.142C29.085,30.667 29.729,30.4 30.401,30.4L30.401,30.4Z" fill="#252B42"/>
</svg>
