<svg width="38" height="38" viewBox="0 0 38 38" fill="none" xmlns="http://www.w3.org/2000/svg" xmlns:xlink="http://www.w3.org/1999/xlink">
<path d="M7.999,22.275L5.266,34.111C5.181,34.469 5.207,34.845 5.339,35.189C5.471,35.532 5.704,35.828 6.007,36.038C6.31,36.247 6.669,36.36 7.037,36.362C7.405,36.365 7.766,36.256 8.071,36.05L18.06,29.391L28.048,36.05C28.361,36.257 28.729,36.364 29.104,36.356C29.479,36.348 29.843,36.225 30.146,36.004C30.449,35.783 30.677,35.474 30.799,35.12C30.922,34.765 30.933,34.382 30.831,34.021L27.476,22.28L35.797,14.792C36.064,14.552 36.254,14.239 36.344,13.892C36.435,13.545 36.422,13.179 36.307,12.84C36.192,12.5 35.979,12.202 35.696,11.981C35.414,11.761 35.072,11.628 34.715,11.6L24.256,10.767L19.731,0.749C19.586,0.427 19.352,0.153 19.055,-0.04C18.759,-0.232 18.413,-0.334 18.06,-0.334C17.706,-0.334 17.36,-0.232 17.064,-0.04C16.767,0.153 16.533,0.427 16.388,0.749L11.863,10.767L1.404,11.598C1.053,11.626 0.717,11.755 0.437,11.968C0.157,12.182 -0.056,12.472 -0.176,12.804C-0.296,13.135 -0.318,13.494 -0.239,13.838C-0.16,14.181 0.016,14.495 0.269,14.741L7.999,22.275L7.999,22.275ZM13.233,14.339C13.561,14.313 13.875,14.2 14.144,14.011C14.412,13.821 14.625,13.564 14.759,13.264L18.06,5.961L21.36,13.264C21.494,13.564 21.707,13.821 21.976,14.011C22.244,14.2 22.559,14.313 22.886,14.339L30.173,14.917L24.172,20.317C23.651,20.787 23.444,21.51 23.634,22.185L25.933,30.229L19.08,25.659C18.779,25.458 18.425,25.35 18.062,25.35C17.7,25.35 17.346,25.458 17.045,25.659L9.883,30.435L11.81,22.095C11.88,21.788 11.871,21.469 11.782,21.167C11.693,20.865 11.528,20.591 11.303,20.371L5.73,14.937L13.233,14.339L13.233,14.339Z" fill="#F3CD03"/>
</svg>
