<svg width="36" height="34" viewBox="0 0 36 34" fill="none" xmlns="http://www.w3.org/2000/svg" xmlns:xlink="http://www.w3.org/1999/xlink">
<path d="M26.062,3.5C26.972,3.499 27.873,3.68 28.712,4.032C29.552,4.384 30.312,4.9 30.949,5.55C32.262,6.883 32.998,8.679 32.998,10.55C32.998,12.421 32.262,14.217 30.949,15.55L17.999,28.663L5.049,15.55C3.736,14.217 3,12.421 3,10.55C3,8.679 3.736,6.883 5.049,5.55C5.687,4.901 6.448,4.385 7.287,4.033C8.126,3.681 9.027,3.499 9.937,3.499C10.847,3.499 11.748,3.681 12.587,4.033C13.426,4.385 14.187,4.901 14.824,5.55L17.999,8.8L21.162,5.575C21.797,4.917 22.559,4.395 23.4,4.038C24.242,3.682 25.148,3.499 26.062,3.5L26.062,3.5ZM26.062,1C24.819,0.999 23.588,1.246 22.442,1.727C21.296,2.208 20.257,2.913 19.387,3.8L17.999,5.2L16.612,3.8C15.741,2.914 14.702,2.211 13.556,1.73C12.41,1.25 11.18,1.003 9.937,1.003C8.694,1.003 7.464,1.25 6.318,1.73C5.172,2.211 4.133,2.914 3.262,3.8C1.489,5.605 0.496,8.033 0.496,10.563C0.496,13.092 1.489,15.52 3.262,17.325L17.999,32.25L32.737,17.325C34.51,15.52 35.503,13.092 35.503,10.563C35.503,8.033 34.51,5.605 32.737,3.8C31.866,2.914 30.827,2.21 29.681,1.729C28.535,1.248 27.305,1 26.062,1L26.062,1Z" fill="#BDBDBD" stroke="#252B42" stroke-width="0.625" stroke-miterlimit="3.999327"/>
</svg>
