<svg width="44" height="44" viewBox="0 0 44 44" fill="none" xmlns="http://www.w3.org/2000/svg" xmlns:xlink="http://www.w3.org/1999/xlink">
<path d="M21,0C15.03,0 14.279,0.028 11.933,0.132C9.588,0.242 7.99,0.61 6.59,1.155C5.122,1.707 3.792,2.574 2.693,3.693C1.574,4.792 0.708,6.122 0.155,7.59C-0.389,8.987 -0.761,10.588 -0.868,12.925C-0.973,15.276 -1,16.024 -1,22.003C-1,27.976 -0.973,28.724 -0.868,31.069C-0.758,33.412 -0.389,35.01 0.155,36.41C0.719,37.856 1.469,39.083 2.693,40.307C3.914,41.53 5.141,42.284 6.587,42.845C7.99,43.389 9.585,43.761 11.928,43.868C14.276,43.972 15.024,44 21,44C26.976,44 27.721,43.972 30.069,43.868C32.41,43.758 34.013,43.389 35.413,42.845C36.88,42.292 38.209,41.426 39.307,40.307C40.53,39.083 41.281,37.856 41.845,36.41C42.387,35.01 42.758,33.412 42.868,31.069C42.972,28.724 43,27.976 43,22C43,16.024 42.972,15.276 42.868,12.928C42.758,10.588 42.387,8.987 41.845,7.59C41.292,6.122 40.426,4.792 39.307,3.693C38.208,2.573 36.878,1.707 35.41,1.155C34.007,0.61 32.407,0.239 30.067,0.132C27.718,0.028 26.973,0 20.995,0L21.003,0L21,0ZM19.028,3.965L21.003,3.965C26.877,3.965 27.572,3.985 29.891,4.092C32.036,4.188 33.202,4.549 33.977,4.848C35.003,5.247 35.737,5.726 36.507,6.496C37.277,7.266 37.753,7.997 38.152,9.025C38.454,9.798 38.812,10.964 38.908,13.109C39.015,15.428 39.037,16.123 39.037,21.995C39.037,27.866 39.015,28.564 38.908,30.882C38.812,33.028 38.452,34.191 38.152,34.966C37.799,35.921 37.236,36.785 36.504,37.493C35.734,38.264 35.003,38.739 33.975,39.138C33.205,39.441 32.038,39.798 29.891,39.897C27.572,40.001 26.877,40.026 21.003,40.026C15.129,40.026 14.43,40.001 12.112,39.897C9.967,39.798 8.804,39.441 8.028,39.138C7.073,38.786 6.208,38.224 5.498,37.493C4.766,36.784 4.202,35.92 3.848,34.964C3.548,34.191 3.188,33.025 3.092,30.88C2.988,28.561 2.965,27.866 2.965,21.989C2.965,16.115 2.988,15.422 3.092,13.104C3.191,10.959 3.548,9.793 3.851,9.017C4.25,7.992 4.728,7.257 5.498,6.487C6.268,5.717 7,5.242 8.028,4.843C8.804,4.54 9.967,4.183 12.112,4.084C14.141,3.99 14.928,3.963 19.028,3.96L19.028,3.965L19.028,3.965ZM32.745,7.618C32.399,7.618 32.055,7.686 31.735,7.818C31.415,7.951 31.124,8.146 30.878,8.391C30.633,8.636 30.439,8.927 30.306,9.247C30.174,9.568 30.105,9.911 30.105,10.257C30.105,10.604 30.174,10.947 30.306,11.268C30.439,11.588 30.633,11.879 30.878,12.124C31.124,12.369 31.415,12.564 31.735,12.697C32.055,12.829 32.399,12.897 32.745,12.897C33.445,12.897 34.117,12.619 34.612,12.124C35.107,11.629 35.385,10.958 35.385,10.257C35.385,9.557 35.107,8.886 34.612,8.391C34.117,7.896 33.445,7.618 32.745,7.618L32.745,7.618ZM21.003,10.703C19.504,10.68 18.016,10.955 16.625,11.512C15.233,12.069 13.967,12.898 12.899,13.949C11.831,15.001 10.983,16.254 10.404,17.636C9.825,19.019 9.527,20.503 9.527,22.001C9.527,23.5 9.825,24.984 10.404,26.366C10.983,27.749 11.831,29.002 12.899,30.054C13.967,31.105 15.233,31.934 16.625,32.491C18.016,33.048 19.504,33.323 21.003,33.3C23.969,33.253 26.798,32.043 28.879,29.929C30.96,27.815 32.126,24.968 32.126,22.001C32.126,19.035 30.96,16.188 28.879,14.074C26.798,11.96 23.969,10.749 21.003,10.703L21.003,10.703ZM21.003,14.666C22.948,14.666 24.813,15.438 26.189,16.814C27.564,18.189 28.337,20.055 28.337,22C28.337,23.945 27.564,25.811 26.189,27.186C24.813,28.562 22.948,29.334 21.003,29.334C19.058,29.334 17.192,28.562 15.817,27.186C14.441,25.811 13.668,23.945 13.668,22C13.668,20.055 14.441,18.189 15.817,16.814C17.192,15.438 19.058,14.666 21.003,14.666L21.003,14.666Z" fill="#FC724D"/>
</svg>
