<svg width="38" height="38" viewBox="0 0 38 38" fill="none" xmlns="http://www.w3.org/2000/svg" xmlns:xlink="http://www.w3.org/1999/xlink">
<path d="M36.194,12.839C36.078,12.5 35.866,12.201 35.583,11.981C35.3,11.76 34.959,11.628 34.601,11.599L24.143,10.768L19.618,0.75C19.473,0.427 19.239,0.153 18.943,-0.039C18.646,-0.231 18.3,-0.334 17.947,-0.334C17.594,-0.334 17.248,-0.232 16.951,-0.04C16.654,0.152 16.42,0.426 16.275,0.748L11.749,10.768L1.291,11.599C0.94,11.627 0.604,11.755 0.324,11.969C0.043,12.183 -0.169,12.473 -0.289,12.804C-0.409,13.136 -0.431,13.495 -0.352,13.839C-0.273,14.182 -0.097,14.496 0.156,14.742L7.884,22.276L5.151,34.112C5.068,34.47 5.094,34.845 5.227,35.188C5.36,35.531 5.593,35.826 5.895,36.035C6.198,36.244 6.556,36.357 6.924,36.36C7.292,36.363 7.652,36.255 7.958,36.051L17.946,29.392L27.935,36.051C28.247,36.258 28.616,36.365 28.991,36.357C29.366,36.349 29.729,36.226 30.033,36.005C30.336,35.784 30.564,35.475 30.686,35.121C30.809,34.766 30.82,34.383 30.718,34.022L27.363,22.281L35.684,14.793C36.229,14.301 36.429,13.535 36.194,12.839L36.194,12.839Z" fill="#F3CD03"/>
</svg>
