<svg width="38" height="38" viewBox="0 0 38 38" fill="none" xmlns="http://www.w3.org/2000/svg" xmlns:xlink="http://www.w3.org/1999/xlink">
<path d="M36.276,12.839C36.16,12.5 35.948,12.201 35.665,11.981C35.382,11.76 35.041,11.628 34.683,11.599L24.225,10.768L19.7,0.75C19.555,0.427 19.321,0.153 19.025,-0.039C18.728,-0.231 18.382,-0.334 18.029,-0.334C17.676,-0.334 17.33,-0.232 17.033,-0.04C16.736,0.152 16.502,0.426 16.357,0.748L11.831,10.768L1.373,11.599C1.022,11.627 0.686,11.755 0.406,11.969C0.125,12.183 -0.087,12.473 -0.207,12.804C-0.327,13.136 -0.349,13.495 -0.27,13.839C-0.191,14.182 -0.015,14.496 0.238,14.742L7.966,22.276L5.233,34.112C5.15,34.47 5.177,34.845 5.309,35.188C5.442,35.531 5.675,35.826 5.977,36.035C6.28,36.244 6.638,36.357 7.006,36.36C7.374,36.363 7.734,36.255 8.04,36.051L18.028,29.392L28.017,36.051C28.329,36.258 28.698,36.365 29.073,36.357C29.448,36.349 29.811,36.226 30.115,36.005C30.418,35.784 30.646,35.475 30.768,35.121C30.891,34.766 30.902,34.383 30.8,34.022L27.445,22.281L35.766,14.793C36.311,14.301 36.511,13.535 36.276,12.839L36.276,12.839Z" fill="#F3CD03"/>
</svg>
