<svg width="18" height="32" viewBox="0 0 18 32" fill="none" xmlns="http://www.w3.org/2000/svg" xmlns:xlink="http://www.w3.org/1999/xlink">
<path d="M-0.638,0.362C-0.524,0.247 -0.388,0.156 -0.239,0.094C-0.089,0.032 0.071,0 0.233,0C0.395,0 0.555,0.032 0.704,0.094C0.854,0.156 0.99,0.247 1.104,0.362L15.872,15.129C15.986,15.243 16.077,15.379 16.139,15.529C16.201,15.678 16.233,15.838 16.233,16C16.233,16.162 16.201,16.322 16.139,16.472C16.077,16.621 15.986,16.757 15.872,16.872L1.104,31.639C0.873,31.87 0.56,32 0.233,32C-0.094,32 -0.407,31.87 -0.638,31.639C-0.87,31.408 -0.999,31.095 -0.999,30.768C-0.999,30.441 -0.87,30.128 -0.638,29.897L13.26,16L-0.638,2.104C-0.753,1.99 -0.844,1.854 -0.906,1.704C-0.968,1.555 -1,1.395 -1,1.233C-1,1.071 -0.968,0.911 -0.906,0.761C-0.844,0.612 -0.753,0.476 -0.638,0.362L-0.638,0.362Z" clip-rule="evenodd" fill-rule="evenodd" fill="#FC724D"/>
</svg>
