<svg width="48" height="60" viewBox="0 0 48 60" fill="none" xmlns="http://www.w3.org/2000/svg" xmlns:xlink="http://www.w3.org/1999/xlink">
<path d="M24,36C30.618,36 36,30.618 36,24C36,17.382 30.618,12 24,12C17.382,12 12,17.382 12,24C12,30.618 17.382,36 24,36ZM24,18C27.309,18 30,20.691 30,24C30,27.309 27.309,30 24,30C20.691,30 18,27.309 18,24C18,20.691 20.691,18 24,18ZM22.26,59.441C22.768,59.804 23.376,59.999 24,59.999C24.624,59.999 25.232,59.804 25.74,59.441C26.652,58.796 48.087,43.32 48,24C48,10.767 37.233,0 24,0C10.767,0 0,10.767 0,23.985C-0.087,43.32 21.348,58.796 22.26,59.441ZM24,6C33.927,6 42,14.073 42,24.015C42.063,37.329 28.836,49.283 24,53.204C19.167,49.28 5.937,37.323 6,24C6,14.073 14.073,6 24,6Z" fill="#FC724D"/>
<path d="M24,36C30.618,36 36,30.618 36,24C36,17.382 30.618,12 24,12C17.382,12 12,17.382 12,24C12,30.618 17.382,36 24,36ZM24,18C27.309,18 30,20.691 30,24C30,27.309 27.309,30 24,30C20.691,30 18,27.309 18,24C18,20.691 20.691,18 24,18ZM22.26,59.441C22.768,59.804 23.376,59.999 24,59.999C24.624,59.999 25.232,59.804 25.74,59.441C26.652,58.796 48.087,43.32 48,24C48,10.767 37.233,0 24,0C10.767,0 0,10.767 0,23.985C-0.087,43.32 21.348,58.796 22.26,59.441ZM24,6C33.927,6 42,14.073 42,24.015C42.063,37.329 28.836,49.283 24,53.204C19.167,49.28 5.937,37.323 6,24C6,14.073 14.073,6 24,6Z" fill="#FC724D"/>
</svg>
