<svg width="46" height="46" viewBox="0 0 46 46" fill="none" xmlns="http://www.w3.org/2000/svg" xmlns:xlink="http://www.w3.org/1999/xlink">
<path d="M45,23.141C45,10.36 34.703,0 22.003,0C9.297,0.003 -1,10.36 -1,23.144C-1,34.691 7.411,44.264 18.404,46L18.404,29.83L12.568,29.83L12.568,23.144L18.41,23.144L18.41,18.041C18.41,12.243 21.845,9.041 27.097,9.041C29.615,9.041 32.245,9.492 32.245,9.492L32.245,15.184L29.345,15.184C26.49,15.184 25.599,16.969 25.599,18.8L25.599,23.141L31.975,23.141L30.957,29.827L25.596,29.827L25.596,45.997C36.589,44.261 45,34.688 45,23.141Z" clip-rule="evenodd" fill-rule="evenodd" fill="#FC724D"/>
</svg>
