<svg width="46" height="46" viewBox="0 0 46 46" fill="none" xmlns="http://www.w3.org/2000/svg" xmlns:xlink="http://www.w3.org/1999/xlink">
<path d="M34.696,24.703C34.473,24.48 34.209,24.303 33.917,24.183C33.626,24.062 33.314,24 32.999,24C32.684,24 32.372,24.062 32.081,24.183C31.789,24.303 31.525,24.48 31.302,24.703L27.477,28.529C25.703,28.001 22.393,26.801 20.296,24.703C18.198,22.606 16.998,19.296 16.47,17.523L20.296,13.697C20.519,13.474 20.696,13.21 20.817,12.919C20.937,12.628 21,12.316 21,12C21,11.685 20.937,11.373 20.817,11.082C20.696,10.791 20.519,10.526 20.296,10.304L10.696,0.704C10.473,0.481 10.209,0.304 9.918,0.183C9.626,0.062 9.314,0 8.999,0C8.684,0 8.372,0.062 8.081,0.183C7.79,0.304 7.525,0.481 7.302,0.704L0.794,7.212C-0.118,8.124 -0.632,9.377 -0.613,10.656C-0.558,14.074 0.347,25.944 9.702,35.299C19.057,44.654 30.928,45.557 34.348,45.614L34.415,45.614C35.682,45.614 36.88,45.115 37.787,44.208L44.296,37.699C44.519,37.477 44.696,37.212 44.816,36.921C44.937,36.63 44.999,36.318 44.999,36.003C44.999,35.687 44.937,35.375 44.816,35.084C44.696,34.793 44.519,34.528 44.296,34.306L34.696,24.703ZM34.391,40.812C31.396,40.762 21.148,39.958 13.096,31.903C5.018,23.825 4.235,13.541 4.187,10.606L8.999,5.794L15.205,12L12.102,15.104C11.82,15.385 11.613,15.733 11.499,16.115C11.385,16.497 11.368,16.902 11.45,17.292C11.507,17.568 12.916,24.113 16.9,28.097C20.884,32.081 27.429,33.49 27.705,33.547C28.095,33.631 28.5,33.616 28.882,33.502C29.265,33.388 29.612,33.18 29.893,32.897L32.999,29.794L39.205,36L34.391,40.812L34.391,40.812Z" fill="#FC724D"/>
</svg>
