<svg width="52" height="42" viewBox="0 0 52 42" fill="none" xmlns="http://www.w3.org/2000/svg" xmlns:xlink="http://www.w3.org/1999/xlink">
<path d="M-0.838,5.433C-0.51,3.961 0.296,2.646 1.447,1.704C2.598,0.763 4.027,0.25 5.5,0.25L44.5,0.25C45.973,0.25 47.402,0.763 48.553,1.704C49.704,2.646 50.51,3.961 50.837,5.433L25,21.63L-0.838,5.433ZM-1,9.24L-1,32.92L17.86,21.06L-1,9.24ZM20.973,23.017L-0.379,36.44C0.148,37.581 0.981,38.545 2.022,39.219C3.063,39.894 4.269,40.251 5.5,40.25L44.5,40.25C45.731,40.25 46.937,39.892 47.977,39.217C49.017,38.542 49.849,37.578 50.376,36.437L29.024,23.013L25,25.537L20.973,23.013L20.973,23.017ZM32.14,21.063L51,32.92L51,9.24L32.14,21.06L32.14,21.063Z" clip-rule="evenodd" fill-rule="evenodd" fill="#FC724D"/>
</svg>
