<svg width="38" height="38" viewBox="0 0 38 38" fill="none" xmlns="http://www.w3.org/2000/svg" xmlns:xlink="http://www.w3.org/1999/xlink">
<path d="M36.248,12.839C36.133,12.5 35.921,12.201 35.638,11.981C35.355,11.76 35.014,11.628 34.656,11.599L24.198,10.768L19.672,0.75C19.528,0.427 19.294,0.153 18.997,-0.039C18.701,-0.231 18.355,-0.334 18.002,-0.334C17.648,-0.334 17.302,-0.232 17.006,-0.04C16.709,0.152 16.474,0.426 16.33,0.748L11.804,10.768L1.346,11.599C0.994,11.627 0.659,11.755 0.378,11.969C0.098,12.183 -0.115,12.473 -0.235,12.804C-0.354,13.136 -0.376,13.495 -0.297,13.839C-0.218,14.182 -0.042,14.496 0.21,14.742L7.939,22.276L5.206,34.112C5.123,34.47 5.149,34.845 5.282,35.188C5.415,35.531 5.647,35.826 5.95,36.035C6.253,36.244 6.611,36.357 6.979,36.36C7.346,36.363 7.707,36.255 8.012,36.051L18.001,29.392L27.99,36.051C28.302,36.258 28.671,36.365 29.046,36.357C29.421,36.349 29.784,36.226 30.087,36.005C30.39,35.784 30.618,35.475 30.741,35.121C30.863,34.766 30.874,34.383 30.772,34.022L27.417,22.281L35.738,14.793C36.283,14.301 36.483,13.535 36.248,12.839L36.248,12.839Z" fill="#F3CD03"/>
</svg>
